<svg width="28" height="23" viewBox="0 0 28 23" fill="none" xmlns="http://www.w3.org/2000/svg">
<path fill-rule="evenodd" clip-rule="evenodd" d="M18.6227 0H5.15097C4.20269 0 3.43401 0.858084 3.43401 1.91664C3.43401 2.97519 4.20269 3.83336 5.15097 3.83336H14.6737C14.9404 4.15757 15.1033 4.59006 15.1033 5.06497C15.1033 5.64052 14.8642 6.1536 14.4908 6.48738H9.11317C8.1649 6.48738 7.39613 7.34556 7.39613 8.40402C7.39613 9.46257 8.1649 10.3207 9.11317 10.3207H10.3807C10.5279 10.5944 10.6126 10.9147 10.6126 11.2572C10.6126 11.8325 10.3736 12.3455 10.0005 12.6793H4.35846C3.41019 12.6793 2.6415 13.5373 2.6415 14.5959C2.6415 15.6544 3.41019 16.5125 4.35846 16.5125H13.8811C14.1479 16.8368 14.3107 17.2692 14.3107 17.7442C14.3107 18.3197 14.0715 18.8329 13.6981 19.1666H11.4905C10.5423 19.1666 9.77357 20.0247 9.77357 21.0833C9.77357 22.1418 10.5423 23 11.4905 23H24.9622C25.9105 23 26.6792 22.1418 26.6792 21.0833C26.6792 20.0247 25.9105 19.1666 24.9622 19.1666H17.2074C16.8339 18.8329 16.5948 18.3197 16.5948 17.7442C16.5948 17.2692 16.7576 16.8368 17.0244 16.5125H17.8302C18.7784 16.5125 19.5472 15.6544 19.5472 14.5959C19.5472 13.5373 18.7784 12.6793 17.8302 12.6793H13.5089C13.1357 12.3455 12.8967 11.8325 12.8967 11.2572C12.8967 10.9147 12.9814 10.5944 13.1286 10.3207H22.5848C23.5331 10.3207 24.3019 9.46257 24.3019 8.40402C24.3019 7.34556 23.5331 6.48738 22.5848 6.48738H18C17.6266 6.1536 17.3874 5.64052 17.3874 5.06497C17.3874 4.59006 17.5503 4.15757 17.8171 3.83336H18.6227C19.571 3.83336 20.3396 2.97519 20.3396 1.91664C20.3396 0.858084 19.571 0 18.6227 0ZM3.16978 19.7563H6.60379C7.33316 19.7563 7.92449 20.4164 7.92449 21.2307C7.92449 22.0449 7.33316 22.705 6.60379 22.705H3.16978C2.44032 22.705 1.84907 22.0449 1.84907 21.2307C1.84907 20.4164 2.44032 19.7563 3.16978 19.7563ZM26.1508 12.9744H22.7169C21.9875 12.9744 21.3961 13.6345 21.3961 14.4488C21.3961 15.2631 21.9875 15.9232 22.7169 15.9232H26.1508C26.8803 15.9232 27.4716 15.2631 27.4716 14.4488C27.4716 13.6345 26.8803 12.9744 26.1508 12.9744ZM1.32079 6.78224H4.75471C5.48417 6.78224 6.0755 7.44234 6.0755 8.25654C6.0755 9.07083 5.48417 9.73093 4.75471 9.73093H1.32079C0.591323 9.73093 0 9.07083 0 8.25654C0 7.44234 0.591323 6.78224 1.32079 6.78224ZM26.6792 0.29486H23.2453C22.5158 0.29486 21.9245 0.954868 21.9245 1.76916C21.9245 2.58345 22.5158 3.24355 23.2453 3.24355H26.6792C27.4087 3.24355 28 2.58345 28 1.76916C28 0.954868 27.4087 0.29486 26.6792 0.29486Z" fill="url(#paint0_linear_41_11)"/>
<defs>
<linearGradient id="paint0_linear_41_11" x1="26.5472" y1="1.47523e-06" x2="1.34167" y2="19.2248" gradientUnits="userSpaceOnUse">
<stop stop-color="#00FF6A"/>
<stop offset="0.66" stop-color="#0066FF"/>
<stop offset="1" stop-color="#B200DE"/>
</linearGradient>
</defs>
</svg>
