<svg width="100%" viewBox="0 0 371 311" fill="none" xmlns="http://www.w3.org/2000/svg">
<mask id="path-1-inside-1_109_112" fill="white">
<path fill-rule="evenodd" clip-rule="evenodd" d="M0 0H324.201L371 33.9486V311H28.2845L0 290.482V0Z"/>
</mask>
<path fill-rule="evenodd" clip-rule="evenodd" d="M0 0H324.201L371 33.9486V311H28.2845L0 290.482V0Z" fill="#D9D9D9" fill-opacity="0.1"/>
<path d="M324.201 0L325.375 -1.6189L324.85 -2H324.201V0ZM0 0V-2H-2V0H0ZM371 33.9486H373V32.9287L372.174 32.3297L371 33.9486ZM371 311V313H373V311H371ZM28.2845 311L27.1101 312.619L27.6354 313H28.2845V311ZM0 290.482H-2V291.502L-1.17438 292.101L0 290.482ZM324.201 -2H0V2H324.201V-2ZM372.174 32.3297L325.375 -1.6189L323.027 1.6189L369.826 35.5675L372.174 32.3297ZM373 311V33.9486H369V311H373ZM28.2845 313H371V309H28.2845V313ZM-1.17438 292.101L27.1101 312.619L29.4588 309.381L1.17438 288.863L-1.17438 292.101ZM-2 0V290.482H2V0H-2Z" fill="#14F194" mask="url(#path-1-inside-1_109_112)"/>
</svg>
